<?xml version="1.0" encoding="UTF-8"?>
<svg width="14px" height="15px" viewBox="0 0 14 15" version="1.1" xmlns="http://www.w3.org/2000/svg" xmlns:xlink="http://www.w3.org/1999/xlink">
    <g stroke="none" stroke-width="1">
        <g transform="translate(-23.000000, -285.000000)">
            <g transform="translate(-1.000000, 64.000000)">
                <g transform="translate(0.000000, 200.000000)">
                    <g transform="translate(24.000000, 17.000000)">
                        <g transform="translate(0.000000, 4.000000)">
                            <path d="M6.88709677,0 C4.98676215,0 3.44623656,1.59898304 3.44623656,3.57142857 C3.44623656,5.54387411 4.98676215,7.14285715 6.88709677,7.14285715 C8.7874314,7.14285715 10.327957,5.54387411 10.327957,3.57142857 C10.327957,1.59898304 8.7874314,0 6.88709677,0 Z M10.327957,7.85714285 C12.1701369,7.85725333 13.6854257,9.36328902 13.7653763,11.2735714 L13.7688172,11.4285714 L13.7688172,12.8571429 C13.7688172,13.9918269 12.9167374,14.9298604 11.8254194,14.9964286 L11.7043011,15 L2.06989248,15 C0.97669154,15 0.0729516574,14.1155868 0.00881720565,12.9828571 L0.00537633871,12.8571429 L0.00537633871,11.4285714 C0.00537633871,9.51648741 1.4564591,7.94369873 3.29690323,7.86071429 L3.44623656,7.85714285 L10.327957,7.85714285 Z M8.9516129,10.7142857 L4.82258065,10.7142857 C4.45847335,10.7147049 4.15769301,11.009436 4.13635465,11.3867106 C4.11501628,11.7639851 4.38050552,12.0932209 4.74206452,12.1378571 L4.82258065,12.1428571 L8.9516129,12.1428571 C9.31572015,12.1424379 9.61650042,11.8477068 9.63783878,11.4704323 C9.65917715,11.0931578 9.39368797,10.7639221 9.03212903,10.7192857 L8.9516129,10.7142857 L8.9516129,10.7142857 Z" id="形状"></path>
                        </g>
                    </g>
                </g>
            </g>
        </g>
    </g>
</svg>